Elementhunters Episode 2. with Hungarian subtitle.

General
Complete name                            : [RhisiartK] Element Hunters - 02 (1280x720 8bit AVC MP3).mkv
Format                                   : Matroska
Format version                           : Version 2
File size                                : 384 MiB
Duration                                 : 24 perc
Overall bit rate                         : 2 194 Kbps
Writing application                      : Lavf51.12.1
Writing library                          : Lavf51.12.1

Video
ID                                       : 1
Format                                   : AVC
Format/Info                              : Advanced Video Codec
Format profile                           : High@L4.0
Format settings, CABAC                   : nem
Format settings, ReFrames                : 8 képkocka
Format settings, GOP                     : M=1, N=12
Codec ID                                 : V_MPEG4/ISO/AVC
Duration                                 : 24 perc
Bit rate                                 : 1 958 Kbps
Width                                    : 1 280 képpont
Height                                   : 720 képpont
Display aspect ratio                     : 16:9
Frame rate mode                          : állandó
Frame rate                               : 24,000 fps
Color space                              : YUV
Chroma subsampling                       : 4:2:0
Bit depth                                : 8 bit
Scan type                                : folytonos
Bits/(Pixel*Frame)                       : 0.089
Stream size                              : 343 MiB (89%)
Default                                  : igen
Forced                                   : nem

Audio
ID                                       : 2
Format                                   : MPEG Audio
Format version                           : Version 1
Format profile                           : Layer 3
Mode                                     : Joint stereo
Mode extension                           : MS Stereo
Codec ID                                 : A_MPEG/L3
Codec ID/Hint                            : MP3
Duration                                 : 24 perc
Bit rate mode                            : állandó
Bit rate                                 : 192 Kbps
Channel(s)                               : 2 csatorna
Sampling rate                            : 48,0 KHz
Stream size                              : 33,6 MiB (9%)
Writing library                          : LAME3.97
Default                                  : igen
Forced                                   : nem